<svg width="10" height="10" viewBox="0 0 10 10" fill="none" xmlns="http://www.w3.org/2000/svg">
<path d="M5.71081 0.289763C5.52388 0.106537 5.27256 0.00390625 5.01081 0.00390625C4.74906 0.00390625 4.49774 0.106537 4.31081 0.289763L1.31081 3.18976C1.2047 3.27732 1.1178 3.38583 1.05554 3.50851C0.993276 3.63118 0.956998 3.76539 0.94897 3.90272C0.940942 4.04006 0.961337 4.17757 1.00888 4.30667C1.05642 4.43576 1.13009 4.55366 1.22528 4.65298C1.32046 4.75231 1.43512 4.83092 1.56207 4.88391C1.68903 4.9369 1.82555 4.96313 1.96311 4.96095C2.10066 4.95877 2.23628 4.92823 2.3615 4.87125C2.48671 4.81426 2.59882 4.73205 2.69081 4.62976L4.00081 3.35976V8.99976C4.00081 9.26498 4.10617 9.51933 4.2937 9.70687C4.48124 9.89441 4.73559 9.99976 5.00081 9.99976C5.26603 9.99976 5.52038 9.89441 5.70792 9.70687C5.89545 9.51933 6.00081 9.26498 6.00081 8.99976V3.40976L7.29081 4.70976C7.38377 4.80349 7.49437 4.87789 7.61623 4.92865C7.73809 4.97942 7.8688 5.00556 8.00081 5.00556C8.13282 5.00556 8.26353 4.97942 8.38539 4.92865C8.50725 4.87789 8.61785 4.80349 8.71081 4.70976C8.80454 4.6168 8.87893 4.5062 8.9297 4.38434C8.98047 4.26248 9.00661 4.13178 9.00661 3.99976C9.00661 3.86775 8.98047 3.73705 8.9297 3.61519C8.87893 3.49333 8.80454 3.38273 8.71081 3.28976L5.71081 0.289763Z" fill="#F40203"/>
</svg>
